<svg xmlns="http://www.w3.org/2000/svg" viewBox="0 0 24 24"><path d="M12.04 2C6.58 2 2.13 6.45 2.13 11.91c0 1.79.46 3.48 1.32 4.95L2 22l5.25-1.38c1.41.81 3.02 1.25 4.75 1.25c5.46 0 9.91-4.45 9.91-9.91c0-5.46-4.45-9.91-9.91-9.91zm0 18.06c-1.54 0-3.02-.42-4.29-1.18l-.3-.18l-3.18.83l.85-3.1l-.2-.31c-.84-1.32-1.28-2.85-1.28-4.48c0-4.52 3.69-8.21 8.21-8.21s8.21 3.69 8.21 8.21c0 4.52-3.69 8.21-8.21 8.21zm4.52-6.13c-.25-.12-1.47-.72-1.7-.81c-.22-.09-.38-.12-.54.12c-.16.25-.64.81-.79.97c-.14.16-.29.18-.54.06c-.25-.12-1.05-.39-2-1.23c-.74-.66-1.23-1.47-1.38-1.72c-.14-.25-.02-.38.11-.5c.11-.11.25-.29.38-.43c.12-.14.16-.25.25-.41c.09-.16.04-.3-.02-.43c-.06-.12-.54-1.29-.74-1.76c-.2-.48-.4-.41-.54-.42c-.14-.01-.3 0-.46 0c-.16 0-.41.06-.64.3c-.22.25-.86.84-.86 2.04c0 1.2.88 2.37 1 2.53c.12.16 1.75 2.67 4.23 3.75c.59.25 1.05.4 1.41.51c.59.18 1.13.16 1.56.1c.48-.07 1.47-.6 1.67-1.18c.21-.58.21-1.08.14-1.18c-.05-.1-.2-.16-.43-.28z" fill="#25D366"/></svg>