<svg width="24" height="24" viewBox="0 0 24 24" xmlns="http://www.w3.org/2000/svg"><defs><radialGradient cx="25.594%" cy="92.14%" fx="25.594%" fy="92.14%" r="131.254%" gradientTransform="scale(1 .75758) rotate(-45 -29.743 78.41)" id="a"><stop stop-color="#FFC107" offset="0%"/><stop stop-color="#F44336" offset="62.336%"/><stop stop-color="#9C27B0" offset="100%"/></radialGradient></defs><g fill-rule="nonzero" fill="none"><path d="M12 2c-2.717 0-3.056.01-4.122.06-1.065.05-1.79.217-2.428.465a4.893 4.893 0 00-1.77 1.153A4.893 4.893 0 002.525 5.45C2.277 6.088 2.11 6.813 2.06 7.878 2.01 8.944 2 9.283 2 12s.01 3.056.06 4.122c.05 1.065.217 1.79.465 2.428a4.893 4.893 0 001.153 1.77 4.893 4.893 0 001.77 1.153c.638.248 1.363.415 2.428.465 1.066.05 1.405.06 4.122.06s3.056-.01 4.122-.06c1.065-.05 1.79-.217 2.428-.465a4.893 4.893 0 001.77-1.153 4.893 4.893 0 001.153-1.77c.248-.638.415-1.363.465-2.428.05-1.066.06-1.405.06-4.122s-.01-3.056-.06-4.122c-.05-1.065-.217-1.79-.465-2.428a4.893 4.893 0 00-1.153-1.77A4.893 4.893 0 0018.55 2.525c-.638-.248-1.363-.415-2.428-.465C15.056 2.01 14.717 2 12 2z" fill="url(#a)"/><path d="M12 7a5 5 0 100 10 5 5 0 000-10zm0 8a3 3 0 110-6 3 3 0 010 6zM18.5 6a.5.5 0 100-1 .5.5 0 000 1z" fill="#FFF"/></g></svg>