<svg xmlns="http://www.w3.org/2000/svg" width="24" height="24" viewBox="0 0 24 24" fill="none" stroke="currentColor" stroke-width="2" stroke-linecap="round" stroke-linejoin="round" class="lucide lucide-layers-3"><path d="m12.83 2.18a2 2 0 0 0-1.66 0L2.6 6.08a1 1 0 0 0 0 1.84l8.58 3.91a2 2 0 0 0 1.66 0l8.58-3.9a1 1 0 0 0 0-1.85Z"/><path d="m22 17.65-8.58 3.9a2 2 0 0 1-1.66 0L3.18 17.65a1 1 0 0 1 0-1.84l8.58-3.91a2 2 0 0 1 1.66 0l8.58 3.91a1 1 0 0 1 0 1.84Z"/><path d="m22 12.65-8.58 3.9a2 2 0 0 1-1.66 0L3.18 12.65a1 1 0 0 1 0-1.84l8.58-3.91a2 2 0 0 1 1.66 0l8.58 3.91a1 1 0 0 1 0 1.84Z"/></svg>