<svg xmlns="http://www.w3.org/2000/svg" width="24" height="24" viewBox="0 0 24 24" fill="none" stroke="currentColor" stroke-width="2" stroke-linecap="round" stroke-linejoin="round" class="lucide lucide-square-dashed-bottom-code"><path d="M21 15.58a2.5 2.5 0 0 0-3.16-3.16-.3.3 0 0 1-.22-.53A2.5 2.5 0 0 0 19 8.2a.3.3 0 0 1 .53-.22 2.5 2.5 0 0 0 3.16 3.16.3.3 0 0 1 .22.53 2.5 2.5 0 0 0-1.34 1.34.3.3 0 0 1-.53.22Z"/><path d="m10 14-4 4 4 4"/><path d="m14 14 4 4-4 4"/><path d="M5 3a2 2 0 0 0-2 2"/><path d="M9 3h1"/><path d="M14 3h1"/><path d="M19 3a2 2 0 0 1 2 2"/><path d="M21 9v1"/><path d="M21 14v1"/><path d="M19 21a2 2 0 0 1-2 2"/><path d="M14 21h-1"/><path d="M9 21H8"/><path d="M4 21a2 2 0 0 1-2-2"/><path d="M3 16v-1"/><path d="M3 9V8"/></svg>